<svg height="512pt" viewBox="0 -38 512.00033 512" width="512pt" xmlns="http://www.w3.org/2000/svg"><path d="m504.5 307.5h-371.5l-18 75.007812h59.5c0-24.8125 20.1875-45 45-45s45 20.1875 45 45h30c0-24.851562 20.148438-45 45-45s45 20.148438 45 45h30c0-24.851562 20.148438-45 45-45s45 20.148438 45 45zm0 0" fill="#596775"/><path d="m504.5 375.007812h-26.894531l19.019531-19.015624-10.609375-10.605469-19.015625 19.015625v-26.894532h-15v26.894532l-19.015625-19.015625-10.605469 10.605469 19.015625 19.015624h-26.894531v15h26.894531l-19.015625 19.015626 10.605469 10.609374 19.015625-19.019531v26.894531h15v-26.894531l19.015625 19.019531 10.609375-10.609374-19.019531-19.015626h26.894531zm0 0" fill="#596775"/><path d="m474.5 382.507812c0 8.285157-6.714844 15-15 15s-15-6.714843-15-15c0-8.285156 6.714844-15 15-15s15 6.714844 15 15zm0 0" fill="#35404a"/><path d="m459.5 435.007812c-28.949219 0-52.5-23.550781-52.5-52.5 0-28.949218 23.550781-52.5 52.5-52.5s52.5 23.550782 52.5 52.5c0 28.949219-23.550781 52.5-52.5 52.5zm0-90c-20.675781 0-37.5 16.824219-37.5 37.5 0 20.679688 16.824219 37.5 37.5 37.5 20.679688 0 37.5-16.820312 37.5-37.5 0-20.675781-16.820312-37.5-37.5-37.5zm0 0" fill="#35404a"/><path d="m376.625 355.992188-10.609375-10.605469-19.015625 19.015625v-26.894532h-15v26.894532l-19.015625-19.015625-10.609375 10.605469 19.015625 19.015624h-26.890625v15h26.894531l-19.019531 19.015626 10.609375 10.609374 19.015625-19.019531v26.894531h15v-26.894531l19.015625 19.019531 10.609375-10.609374-19.019531-19.015626h26.894531v-15h-26.894531zm0 0" fill="#596775"/><path d="m354.5 382.507812c0 8.285157-6.714844 15-15 15s-15-6.714843-15-15c0-8.285156 6.714844-15 15-15s15 6.714844 15 15zm0 0" fill="#35404a"/><path d="m339.5 435.007812c-28.949219 0-52.5-23.550781-52.5-52.5 0-28.949218 23.550781-52.5 52.5-52.5s52.5 23.550782 52.5 52.5c0 28.949219-23.550781 52.5-52.5 52.5zm0-90c-20.679688 0-37.5 16.824219-37.5 37.5 0 20.679688 16.820312 37.5 37.5 37.5 20.675781 0 37.5-16.820312 37.5-37.5 0-20.675781-16.824219-37.5-37.5-37.5zm0 0" fill="#35404a"/><path d="m256.625 355.992188-10.609375-10.605469-19.015625 19.015625v-26.894532h-15v26.894532l-19.015625-19.015625-10.609375 10.605469 19.015625 19.015624h-26.890625v15h26.890625l-19.015625 19.015626 10.609375 10.609374 19.015625-19.019531v26.894531h15v-26.894531l19.015625 19.019531 10.609375-10.609374-19.019531-19.015626h26.894531v-15h-26.894531zm0 0" fill="#596775"/><path d="m234.5 382.507812c0 8.285157-6.714844 15-15 15s-15-6.714843-15-15c0-8.285156 6.714844-15 15-15s15 6.714844 15 15zm0 0" fill="#35404a"/><path d="m219.5 435.007812c-28.949219 0-52.5-23.550781-52.5-52.5 0-28.949218 23.550781-52.5 52.5-52.5s52.5 23.550782 52.5 52.5c0 28.949219-23.550781 52.5-52.5 52.5zm0-90c-20.679688 0-37.5 16.824219-37.5 37.5 0 20.679688 16.820312 37.5 37.5 37.5 20.675781 0 37.5-16.820312 37.5-37.5 0-20.675781-16.824219-37.5-37.5-37.5zm0 0" fill="#35404a"/><path d="m261 27.5c-22.089844 0-40 17.90625-40 40v30h80v-30c0-22.09375-17.910156-40-40-40zm0 0" fill="#596775"/><path d="m261 27.5c-6.675781 0-12.964844 1.644531-18.5 4.539062 12.773438 6.675782 21.5 20.046876 21.5 35.460938v30h37v-30c0-22.09375-17.910156-40-40-40zm0 0" fill="#35404a"/><path d="m185.496094 87.5-50 30.003906-50-30.003906v-65h100zm0 0" fill="#596775"/><path d="m148.496094 22.5v65l-31.5 18.902344 18.5 11.101562 50-30.003906v-65zm0 0" fill="#35404a"/><path d="m185.496094 37.5h-100c-8.285156 0-15-6.714844-15-15s6.714844-15 15-15h100c8.28125 0 15 6.714844 15 15s-6.71875 15-15 15zm0 0" fill="#4d5967"/><path d="m71.164062 87.5c-5.921874 0-11.292968 3.480469-13.707031 8.890625-13.785156 30.886719-21.457031 65.097656-21.457031 101.109375s7.671875 70.222656 21.457031 101.109375c2.414063 5.410156 7.785157 8.890625 13.707031 8.890625h280.328126v-220zm0 0" fill="#4d5967"/><g fill="#35404a"><path d="m306 87.5v36.5c-4.140625 0-7.5 3.359375-7.5 7.5s3.359375 7.5 7.5 7.5v29c-4.140625 0-7.5 3.359375-7.5 7.5s3.359375 7.5 7.5 7.5v29c-4.140625 0-7.5 3.359375-7.5 7.5s3.359375 7.5 7.5 7.5v6.5h-95.5v-146c0-4.140625-3.355469-7.5-7.5-7.5s-7.5 3.359375-7.5 7.5v146h-116.835938v-146c0-4.140625-3.355468-7.5-7.5-7.5-4.144531 0-7.5 3.359375-7.5 7.5v143.984375c-2.6875-1.550781-4.890624-3.921875-6.207031-6.875-8.96875-20.097656-15.332031-41.613281-18.695312-64.109375-1.804688 12.074219-2.761719 24.421875-2.761719 37 0 36.011719 7.671875 70.222656 21.457031 101.109375 1.316407 2.953125 3.519531 5.324219 6.207031 6.875v2.015625c0 4.140625 3.355469 7.5 7.5 7.5 4.144532 0 7.5-3.359375 7.5-7.5h22.589844l-99.429687 115.105469c-1.917969 2.21875-2.363281 5.355469-1.144531 8.023437 1.222656 2.667969 3.886718 4.378906 6.820312 4.378906h137c4.140625 0 7.5-3.359374 7.5-7.5v-45c0-4.140624-3.359375-7.5-7.5-7.5-4.144531 0-7.5 3.359376-7.5 7.5v37.5h-24.03125l27.96875-110.667968c.15625-.617188.222656-1.234375.222656-1.839844h54.339844c0 4.140625 3.355469 7.5 7.5 7.5s7.5-3.359375 7.5-7.5h140.992188v-220zm-282.109375 332.507812 75.835937-87.789062-50.722656 87.789062zm73.605469 0h-31.167969l55.40625-95.902343zm-3.824219-156.507812c0-4.140625 3.347656-7.5 7.5-7.5 4.136719 0 7.5 3.359375 7.5 7.5s-3.363281 7.5-7.5 7.5c-4.152344 0-7.5-3.359375-7.5-7.5zm79.328125 7.5c-4.140625 0-7.5-3.359375-7.5-7.5s3.359375-7.5 7.5-7.5 7.5 3.359375 7.5 7.5-3.359375 7.5-7.5 7.5zm60 0c-4.140625 0-7.5-3.359375-7.5-7.5s3.359375-7.5 7.5-7.5 7.5 3.359375 7.5 7.5-3.359375 7.5-7.5 7.5zm73 0c-4.140625 0-7.5-3.359375-7.5-7.5s3.359375-7.5 7.5-7.5 7.5 3.359375 7.5 7.5-3.359375 7.5-7.5 7.5zm0 0"/><path d="m180.5 219.5c0 4.140625-3.359375 7.5-7.5 7.5s-7.5-3.359375-7.5-7.5 3.359375-7.5 7.5-7.5 7.5 3.359375 7.5 7.5zm0 0"/><path d="m180.5 131.5c0 4.140625-3.359375 7.5-7.5 7.5s-7.5-3.359375-7.5-7.5 3.359375-7.5 7.5-7.5 7.5 3.359375 7.5 7.5zm0 0"/><path d="m180.5 175.5c0 4.140625-3.359375 7.5-7.5 7.5s-7.5-3.359375-7.5-7.5 3.359375-7.5 7.5-7.5 7.5 3.359375 7.5 7.5zm0 0"/><path d="m240.5 175.5c0 4.140625-3.359375 7.5-7.5 7.5s-7.5-3.359375-7.5-7.5 3.359375-7.5 7.5-7.5 7.5 3.359375 7.5 7.5zm0 0"/><path d="m240.5 219.5c0 4.140625-3.359375 7.5-7.5 7.5s-7.5-3.359375-7.5-7.5 3.359375-7.5 7.5-7.5 7.5 3.359375 7.5 7.5zm0 0"/><path d="m240.5 131.5c0 4.140625-3.359375 7.5-7.5 7.5s-7.5-3.359375-7.5-7.5 3.359375-7.5 7.5-7.5 7.5 3.359375 7.5 7.5zm0 0"/><path d="m101.171875 124c-4.148437 0-7.5 3.359375-7.5 7.5s3.347656 7.5 7.5 7.5c4.136719 0 7.5-3.359375 7.5-7.5s-3.363281-7.5-7.5-7.5zm0 0"/><path d="m101.171875 168c-4.152344 0-7.5 3.359375-7.5 7.5s3.347656 7.5 7.5 7.5c4.136719 0 7.5-3.359375 7.5-7.5s-3.363281-7.5-7.5-7.5zm0 0"/><path d="m101.171875 212c-4.152344 0-7.5 3.359375-7.5 7.5s3.347656 7.5 7.5 7.5c4.136719 0 7.5-3.359375 7.5-7.5s-3.363281-7.5-7.5-7.5zm0 0"/></g><path d="m336 7.5v300h168.5v-300zm45 30h78.5c8.285156 0 15 6.714844 15 15v90.007812c0 8.285157-6.714844 15-15 15h-78.5c-8.285156 0-15-6.714843-15-15v-90.007812c0-8.285156 6.714844-15 15-15zm0 0" fill="#ff5368"/><path d="m504.5 0c-9.367188 0-177.027344 0-183.5 0-4.144531 0-7.5 3.359375-7.5 7.5s3.355469 7.5 7.5 7.5h153.5v247.5c0 8.285156-6.714844 15-15 15h-123.5v30h168.5v-292.5c4.144531 0 7.5-3.359375 7.5-7.5s-3.355469-7.5-7.5-7.5zm0 0" fill="#c5324f"/></svg>